# xmcd
#
# Track frame offsets:
#	150
#	16041
#	31265
#	46856
#	59629
#	73286
#	86259
#	105691
#	121748
#	134250
#	147870
#	162165
#	179247
#	197334
#	209089
#	220865
#
# Disc length: 3207 seconds
#
# Revision: 0
# Processed by: cddbd v1.5.2PL0 Copyright (c) Steve Scherf et al.
# Submitted via: audiograbber 1.83.01
#
DISCID=e70c8510
DTITLE=Truck Stop - Nicht Zu Bremsen
DYEAR=1993
DGENRE=Country
TTITLE0=Ich Möcht So Gern Dave Dudley Hör'n
TTITLE1=Easy Rider
TTITLE2=Jeden Tag In Einer Anderen Stadt
TTITLE3=Wieder Mal Zu Spät
TTITLE4=Take It Easy, Altes Haus
TTITLE5=Die Frau Mit Dem Gurt
TTITLE6=Lass Mich Geh'n
TTITLE7=Kopf Oder Zahl
TTITLE8=Der Wilde Wilde Westen
TTITLE9=Cowboy Bei Der Bahn
TTITLE10=Angeln Entspannt
TTITLE11=Old Texas Town, Die Westernstadt 
TTITLE12=Amerika
TTITLE13=Ich Pfeife Auf Die Autobahn
TTITLE14=Lass Die Mädels Wissen
TTITLE15=Nein Danke, Ich Rauch Nicht Mehr
EXTD=
EXTT0=
EXTT1=
EXTT2=
EXTT3=
EXTT4=
EXTT5=
EXTT6=
EXTT7=
EXTT8=
EXTT9=
EXTT10=
EXTT11=
EXTT12=
EXTT13=
EXTT14=
EXTT15=
PLAYORDER=
